<svg id="color" height="512" viewBox="0 0 24 24" width="512" xmlns="http://www.w3.org/2000/svg"><path d="m15.75 6h-7c-.414 0-.75.336-.75.75v3.5c0 .414.336.75.75.75h7c.414 0 .75-.336.75-.75v-3.5c0-.414-.336-.75-.75-.75z" fill="#cfd8dc"/><path d="m21 18h-18c-1.654 0-3 1.346-3 3s1.346 3 3 3h18c1.654 0 3-1.346 3-3s-1.346-3-3-3z" fill="#607d8b"/><g fill="#cfd8dc"><path d="m3 20c-.551 0-1 .449-1 1s.449 1 1 1c.552 0 1-.449 1-1s-.448-1-1-1z"/><path d="m9 20c-.551 0-1 .449-1 1s.449 1 1 1c.552 0 1-.449 1-1s-.448-1-1-1z"/><path d="m15 20c-.551 0-1 .449-1 1s.449 1 1 1c.552 0 1-.449 1-1s-.448-1-1-1z"/><path d="m21 20c-.551 0-1 .449-1 1s.449 1 1 1c.552 0 1-.449 1-1s-.448-1-1-1z"/></g><path d="m24 21h-2c0 .551-.448 1-1 1-.551 0-1-.449-1-1h-4c0 .551-.448 1-1 1-.551 0-1-.449-1-1h-4c0 .551-.448 1-1 1-.551 0-1-.449-1-1h-4c0 .551-.448 1-1 1-.551 0-1-.449-1-1h-2c0 1.654 1.346 3 3 3h18c1.654 0 3-1.346 3-3z" fill="#546d79"/><path d="m4 21h-2c0 .551.449 1 1 1 .552 0 1-.449 1-1z" fill="#b4bcc0"/><path d="m10 21h-2c0 .551.449 1 1 1 .552 0 1-.449 1-1z" fill="#b4bcc0"/><path d="m16 21h-2c0 .551.449 1 1 1 .552 0 1-.449 1-1z" fill="#b4bcc0"/><path d="m22 21h-2c0 .551.449 1 1 1 .552 0 1-.449 1-1z" fill="#b4bcc0"/><path d="m6.5 16c-.414 0-.75-.336-.75-.75v-2c0-.414.336-.75.75-.75s.75.336.75.75v2c0 .414-.336.75-.75.75z" fill="#cfd8dc"/><path d="m8.25 10h-3.5c-.414 0-.75.336-.75.75v2.5c0 .414.336.75.75.75h3.5c.414 0 .75-.336.75-.75v-2.5c0-.414-.336-.75-.75-.75z" fill="#90a4ae"/><path d="m19.5 4c-2.481 0-4.5 2.019-4.5 4.5s2.019 4.5 4.5 4.5 4.5-2.019 4.5-4.5-2.019-4.5-4.5-4.5z" fill="#607d8b"/><path d="m19.5 6c-1.379 0-2.5 1.122-2.5 2.5s1.121 2.5 2.5 2.5 2.5-1.122 2.5-2.5-1.121-2.5-2.5-2.5z" fill="#90a4ae"/><path d="m6.5 5c-1.93 0-3.5 1.57-3.5 3.5s1.57 3.5 3.5 3.5 3.5-1.57 3.5-3.5-1.57-3.5-3.5-3.5z" fill="#607d8b"/><path d="m6.5 14h-.75v1.25c0 .414.336.75.75.75z" fill="#b4bcc0"/><path d="m4 10.947v2.303c0 .414.336.75.75.75h1 .75v-2c-.978 0-1.864-.404-2.5-1.053z" fill="#7d8f97"/><path d="m19.5 4c-2.481 0-4.5 2.019-4.5 4.5s2.019 4.5 4.5 4.5v-2c-1.379 0-2.5-1.122-2.5-2.5s1.121-2.5 2.5-2.5z" fill="#546d79"/><path d="m19.5 6c-1.379 0-2.5 1.122-2.5 2.5s1.121 2.5 2.5 2.5z" fill="#7d8f97"/><path d="m6.5 5c-1.93 0-3.5 1.57-3.5 3.5 0 .951.382 1.815 1 2.447.636.649 1.522 1.053 2.5 1.053z" fill="#546d79"/></svg>