<?xml version="1.0" encoding="iso-8859-1"?>
<!-- Generator: Adobe Illustrator 19.0.0, SVG Export Plug-In . SVG Version: 6.00 Build 0)  -->
<svg version="1.1" id="Capa_1" xmlns="http://www.w3.org/2000/svg" xmlns:xlink="http://www.w3.org/1999/xlink" x="0px" y="0px"
	 viewBox="0 0 480 480" style="enable-background:new 0 0 480 480;" xml:space="preserve">
<g>
	<circle style="fill:#79ACC6;" cx="352" cy="400" r="24"/>
	<circle style="fill:#79ACC6;" cx="432" cy="384" r="24"/>
	<path style="fill:#79ACC6;" d="M448,408h-16h-16c-13.256,0-24,10.744-24,24v16c0-13.256-10.744-24-24-24h-16h-16
		c-13.256,0-24,10.744-24,24v-16c0-13.256-10.744-24-24-24h-16h-16c-13.256,0-24,10.744-24,24v24h80v16h80v-16h80v-24
		C472,418.744,461.256,408,448,408z"/>
	<circle style="fill:#79ACC6;" cx="272" cy="384" r="24"/>
</g>
<polygon style="fill:#CE7DA5;" points="152,224 152,176 8,176 8,280 152,280 "/>
<path style="fill:#BEE5BF;" d="M64,312c13.256,0,24,10.744,24,24h80c0-13.256,10.744-24,24-24s24,10.744,24,24h24v-72l-40-40h-48v56
	H8v56h32C40,322.744,50.744,312,64,312z"/>
<g>
	<circle style="fill:#DFF3E3;" cx="64" cy="336" r="24"/>
	<circle style="fill:#DFF3E3;" cx="192" cy="336" r="24"/>
</g>
<polygon style="fill:#BEE5BF;" points="424,104 360,144 360,104 296,144 296,104 232,144 232,208 296,208 360,208 424,208 472,208 
	472,128 424,128 "/>
<polygon style="fill:#DFF3E3;" points="424,104 424,128 472,128 472,8 424,8 "/>
<g>
	<path style="fill:#493657;" d="M458.504,401.912C461.968,396.8,464,390.632,464,384c0-17.648-14.352-32-32-32s-32,14.352-32,32
		c0,6.632,2.032,12.8,5.496,17.912c-9.168,3.216-16.376,10.416-19.584,19.584c-2.264-1.536-4.784-2.664-7.416-3.584
		C381.968,412.8,384,406.632,384,400c0-17.648-14.352-32-32-32s-32,14.352-32,32c0,6.632,2.032,12.8,5.496,17.912
		c-2.624,0.92-5.152,2.048-7.416,3.584c-3.216-9.168-10.416-16.376-19.584-19.584C301.968,396.8,304,390.632,304,384
		c0-17.648-14.352-32-32-32s-32,14.352-32,32c0,6.632,2.032,12.8,5.496,17.912C233.024,406.288,224,418.048,224,432v24
		c0,4.424,3.576,8,8,8h72v8c0,4.424,3.576,8,8,8h80c4.424,0,8-3.576,8-8v-8h72c4.424,0,8-3.576,8-8v-24
		C480,418.048,470.976,406.288,458.504,401.912z M432,368c8.824,0,16,7.176,16,16s-7.176,16-16,16s-16-7.176-16-16
		S423.176,368,432,368z M352,384c8.824,0,16,7.176,16,16s-7.176,16-16,16s-16-7.176-16-16S343.176,384,352,384z M272,368
		c8.824,0,16,7.176,16,16s-7.176,16-16,16s-16-7.176-16-16S263.176,368,272,368z M240,448v-16c0-8.824,7.176-16,16-16h32
		c8.824,0,16,7.176,16,16v16H240z M384,464h-64v-8v-8c0-8.824,7.176-16,16-16h32c8.824,0,16,7.176,16,16v8V464z M464,448h-64v-16
		c0-8.824,7.176-16,16-16h32c8.824,0,16,7.176,16,16V448z"/>
	<path style="fill:#493657;" d="M8,344h25.136c3.576,13.768,15.992,24,30.864,24s27.288-10.232,30.864-24h66.272
		c3.576,13.768,15.992,24,30.864,24s27.288-10.232,30.864-24H240c4.424,0,8-3.576,8-8v-72c0-2.128-0.84-4.16-2.344-5.656l-40-40
		C204.16,216.84,202.128,216,200,216h-40v-40c0-4.424-3.576-8-8-8H8c-4.424,0-8,3.576-8,8v104v56C0,340.424,3.576,344,8,344z
		 M64,352c-8.824,0-16-7.176-16-16s7.176-16,16-16s16,7.176,16,16S72.824,352,64,352z M192,352c-8.824,0-16-7.176-16-16
		s7.176-16,16-16s16,7.176,16,16S200.824,352,192,352z M196.688,232L232,267.312V328h-9.016c-0.28-1.088-0.712-2.112-1.104-3.16
		c-0.192-0.512-0.32-1.04-0.536-1.544c-0.768-1.76-1.672-3.448-2.728-5.024c-0.232-0.352-0.528-0.656-0.784-1
		c-0.872-1.208-1.8-2.36-2.832-3.432c-0.472-0.488-0.984-0.912-1.48-1.368c-0.92-0.84-1.856-1.64-2.872-2.368
		c-0.592-0.432-1.2-0.824-1.824-1.208c-1.032-0.64-2.096-1.216-3.208-1.744c-0.656-0.312-1.304-0.624-1.992-0.896
		c-1.224-0.48-2.496-0.848-3.784-1.176c-0.624-0.16-1.216-0.36-1.848-0.48c-1.944-0.368-3.936-0.6-5.992-0.6s-4.048,0.232-6,0.608
		c-0.632,0.12-1.232,0.328-1.848,0.48c-1.296,0.328-2.56,0.696-3.784,1.176c-0.68,0.272-1.328,0.584-1.992,0.896
		c-1.104,0.528-2.176,1.096-3.208,1.744c-0.624,0.392-1.232,0.776-1.824,1.208c-1.008,0.728-1.952,1.528-2.872,2.368
		c-0.496,0.456-1.008,0.88-1.48,1.368c-1.032,1.072-1.96,2.224-2.832,3.432c-0.248,0.344-0.544,0.648-0.784,1
		c-1.056,1.584-1.968,3.264-2.728,5.024c-0.216,0.496-0.344,1.032-0.536,1.544c-0.392,1.04-0.824,2.064-1.104,3.16H94.976
		c-0.28-1.088-0.712-2.112-1.104-3.16c-0.192-0.512-0.32-1.04-0.536-1.544c-0.768-1.76-1.672-3.448-2.728-5.024
		c-0.232-0.352-0.528-0.656-0.784-1c-0.872-1.208-1.8-2.36-2.832-3.432c-0.472-0.488-0.984-0.912-1.48-1.368
		c-0.92-0.84-1.856-1.64-2.872-2.368c-0.592-0.432-1.2-0.824-1.824-1.208c-1.032-0.64-2.096-1.216-3.208-1.744
		c-0.656-0.312-1.304-0.624-1.992-0.896c-1.224-0.48-2.496-0.848-3.784-1.176c-0.624-0.16-1.216-0.36-1.848-0.48
		C68.048,304.232,66.056,304,64,304s-4.048,0.232-6,0.608c-0.632,0.12-1.232,0.328-1.848,0.48c-1.296,0.328-2.56,0.696-3.784,1.176
		c-0.68,0.272-1.328,0.584-1.992,0.896c-1.104,0.528-2.176,1.096-3.208,1.744c-0.624,0.392-1.232,0.776-1.824,1.208
		c-1.008,0.728-1.952,1.528-2.872,2.368c-0.496,0.456-1.008,0.88-1.48,1.368c-1.032,1.072-1.96,2.224-2.832,3.432
		c-0.248,0.344-0.544,0.648-0.784,1c-1.056,1.584-1.968,3.264-2.728,5.024c-0.216,0.496-0.344,1.032-0.536,1.544
		c-0.384,1.04-0.816,2.064-1.096,3.152H16v-40h136c4.424,0,8-3.576,8-8v-48H196.688z M16,184h128v40v48H16V184z"/>
	<path style="fill:#493657;" d="M472,0h-48c-4.424,0-8,3.576-8,8v91.568l-48,30V104c0-2.904-1.576-5.584-4.128-7
		c-2.528-1.4-5.648-1.336-8.12,0.216L304,129.568V104c0-2.904-1.576-5.584-4.128-7c-2.536-1.4-5.648-1.336-8.12,0.216l-64,40
		C225.424,138.68,224,141.24,224,144v64c0,4.424,3.576,8,8,8h64h64h64h48c4.424,0,8-3.576,8-8v-80V8C480,3.576,476.424,0,472,0z
		 M432,16h32v104h-32v-16V16z M240,148.44l48-30V144v56h-48V148.44z M304,148.44l48-30V144v56h-48V148.44z M368,148.44l48-30V128v72
		h-48V148.44z M464,200h-32v-64h32V200z"/>
	<rect x="320" y="160" style="fill:#493657;" width="16" height="24"/>
	<rect x="384" y="160" style="fill:#493657;" width="16" height="24"/>
	<rect x="256" y="160" style="fill:#493657;" width="16" height="24"/>
	<path style="fill:#493657;" d="M416.88,306.784l14.736,6.232c2.152-5.08,4.128-10.32,5.864-15.568l-15.184-5.032
		C420.688,297.256,418.864,302.088,416.88,306.784z"/>
	<path style="fill:#493657;" d="M402.704,333.992l13.544,8.512c2.952-4.696,5.744-9.544,8.28-14.44l-14.184-7.392
		C408,325.184,405.432,329.664,402.704,333.992z"/>
	<path style="fill:#493657;" d="M426.528,277.656l15.544,3.8c1.304-5.344,2.408-10.832,3.288-16.304l-15.8-2.544
		C428.76,267.664,427.736,272.736,426.528,277.656z"/>
	<path style="fill:#493657;" d="M448,232h-16c0,5.152-0.2,10.312-0.608,15.344l15.952,1.28C447.784,243.168,448,237.568,448,232z"/>
	<path style="fill:#493657;" d="M130.32,63.232c-4.672,2.904-9.304,6.048-13.776,9.344l9.512,12.872
		c4.12-3.048,8.392-5.952,12.696-8.624L130.32,63.232z"/>
	<path style="fill:#493657;" d="M166.008,62.776l-6.168-14.768c-5.08,2.128-10.152,4.496-15.072,7.032l7.328,14.216
		C156.64,66.912,161.328,64.736,166.008,62.776z"/>
	<path style="fill:#493657;" d="M240.904,32l-0.064,16c5.144,0.024,10.304,0.248,15.344,0.672l1.344-15.936
		C252.072,32.272,246.48,32.024,240.904,32z"/>
	<path style="fill:#493657;" d="M114.08,95.056l-10.512-12.064c-4.176,3.64-8.248,7.48-12.096,11.4l11.424,11.2
		C106.448,101.968,110.208,98.424,114.08,95.056z"/>
	<path style="fill:#493657;" d="M321.848,48.728c-5.112-2.184-10.344-4.184-15.552-5.936L301.2,57.96
		c4.816,1.608,9.632,3.456,14.336,5.472L321.848,48.728z"/>
	<path style="fill:#493657;" d="M53.168,148.472l14.36,7.064c2.288-4.648,4.752-9.192,7.312-13.496l-13.736-8.2
		C58.32,138.504,55.648,143.432,53.168,148.472z"/>
	<path style="fill:#493657;" d="M70.16,119.896l13.064,9.248c2.92-4.136,6.072-8.224,9.368-12.176l-12.28-10.248
		C76.736,111,73.32,115.432,70.16,119.896z"/>
	<path style="fill:#493657;" d="M274.032,34.776l-2.608,15.784c5.08,0.84,10.136,1.88,15.032,3.112l3.872-15.528
		C285.008,36.816,279.528,35.68,274.032,34.776z"/>
	<path style="fill:#493657;" d="M191.456,37.696c-5.352,1.272-10.744,2.8-16.024,4.52l4.968,15.2
		c4.864-1.584,9.832-2.992,14.76-4.168L191.456,37.696z"/>
	<path style="fill:#493657;" d="M224.288,32.576c-5.544,0.424-11.104,1.064-16.512,1.896l2.456,15.816
		c5.008-0.784,10.144-1.368,15.264-1.76L224.288,32.576z"/>
	<path style="fill:#493657;" d="M336.864,55.888l-7.472,14.16c4.488,2.36,8.96,4.952,13.296,7.704l8.56-13.512
		C346.56,61.256,341.72,58.456,336.864,55.888z"/>
	<path style="fill:#493657;" d="M166.96,419.768l-5.64,14.968c5.176,1.952,10.496,3.72,15.808,5.232l4.408-15.376
		C176.648,423.184,171.744,421.56,166.96,419.768z"/>
	<path style="fill:#493657;" d="M139.224,406.672l-7.968,13.872c4.816,2.76,9.776,5.344,14.752,7.696l6.832-14.472
		C148.24,411.6,143.656,409.216,139.224,406.672z"/>
	<path style="fill:#493657;" d="M113.904,389.304l-10.064,12.44c4.328,3.504,8.808,6.848,13.328,9.944l9.048-13.184
		C122.056,395.632,117.904,392.544,113.904,389.304z"/>
	<path style="fill:#493657;" d="M93.864,370.56l-11.736,10.872c2.96,3.2,6.04,6.312,9.2,9.328l11.032-11.592
		C99.44,376.392,96.608,373.512,93.864,370.56z"/>
	<path style="fill:#493657;" d="M196.456,428.224l-3.16,15.688c5.44,1.096,10.96,1.984,16.424,2.64l1.904-15.888
		C206.584,430.064,201.488,429.24,196.456,428.224z"/>
</g>
<g>
</g>
<g>
</g>
<g>
</g>
<g>
</g>
<g>
</g>
<g>
</g>
<g>
</g>
<g>
</g>
<g>
</g>
<g>
</g>
<g>
</g>
<g>
</g>
<g>
</g>
<g>
</g>
<g>
</g>
</svg>
