<?xml version="1.0" encoding="UTF-8"?>
<svg xmlns="http://www.w3.org/2000/svg" viewBox="0 0 64 64" width="512" height="512"><g id="Layer_28" data-name="Layer 28"><path d="M58.814,35.186,56,38l-3.187-3.187h0A21.022,21.022,0,0,1,41,50.979l-.221.106-.02-.038A1.988,1.988,0,0,1,41,52h0a2,2,0,0,1-2,2,2,2,0,0,1,2,2h3.382A27.019,27.019,0,0,0,58.814,35.186Z" style="fill:#4d8c28"/><path d="M23.225,51.079l-.225-.1A21,21,0,0,1,11,32h3L8,26,2,32H5A27,27,0,0,0,19.618,56H23a2,2,0,0,1,2-2,2,2,0,0,1-2-2h0a1.988,1.988,0,0,1,.225-.922Z" style="fill:#559b2d"/><path d="M11.187,29.187A21,21,0,0,1,32,11v3l6-6L32,2V5A27,27,0,0,0,5.186,28.814h0L8,26l3.187,3.187Z" style="fill:#6bc13b"/><path d="M34.813,11.187,38,8,35.186,5.186h0A27,27,0,0,1,59,32h3l-6,6-6-6h3A21,21,0,0,0,34.813,11.187Z" style="fill:#7bdf45"/><path d="M39,50h0a7.562,7.562,0,0,1,2.389-5.631,14,14,0,1,0-18.893-.1A7.8,7.8,0,0,1,25,50V50" style="fill:#f4a93c"/><path d="M45.9,32.315A14.044,14.044,0,0,0,34.029,20.156,13.975,13.975,0,0,0,26.5,44.264,7.8,7.8,0,0,1,29,50V50H39a7.562,7.562,0,0,1,2.389-5.631A13.952,13.952,0,0,0,45.9,32.315Z" style="fill:#f6b940"/><rect x="23" y="50" width="18" height="4" rx="2" style="fill:#686868"/><rect x="23" y="54" width="18" height="4" rx="2" style="fill:#474747"/><path d="M28,58h0a4,4,0,0,0,4,4h0a4,4,0,0,0,4-4h0" style="fill:#939393"/><path d="M42,34H40a8.009,8.009,0,0,0-8-8V24A10.011,10.011,0,0,1,42,34Z" style="fill:#fce797"/><path d="M62.924,31.617A1,1,0,0,0,62,31H59.982A27.985,27.985,0,0,0,35.656,4.242L32.707,1.293A1,1,0,0,0,31,2V4.018A27.98,27.98,0,0,0,4.243,28.343l-2.95,2.95A1,1,0,0,0,2,33H4.018A27.914,27.914,0,0,0,19.16,56.889a1,1,0,0,0,.459.111h2.565A3,3,0,0,0,25,59h2.1a5,5,0,0,0,9.8,0H39a3,3,0,0,0,2.816-2h2.565a1,1,0,0,0,.459-.111A27.954,27.954,0,0,0,59.754,35.66l2.953-2.953A1,1,0,0,0,62.924,31.617ZM58,32a1,1,0,0,0,1,1h.586L56,36.586,52.414,33H53a1,1,0,0,0,1-1A22.069,22.069,0,0,0,36.869,10.545l1.838-1.838a1,1,0,0,0,0-1.414l-.556-.556A25.994,25.994,0,0,1,58,32ZM24,52a1,1,0,0,1,1-1H39a1,1,0,0,1,0,2H25A1,1,0,0,1,24,52Zm14.057-3H25.939a8.827,8.827,0,0,0-2.765-5.471,13,13,0,1,1,17.544.1A8.44,8.44,0,0,0,38.057,49Zm3,.827a2.991,2.991,0,0,0-1.008-.628,6.433,6.433,0,0,1,2.011-4.088A14.874,14.874,0,0,0,46.9,32.2,15.05,15.05,0,0,0,33.714,19.1,14.991,14.991,0,0,0,21.817,45a6.821,6.821,0,0,1,2.132,4.2,3,3,0,0,0-1,.625A20.113,20.113,0,0,1,12.025,33H14a1,1,0,0,0,.707-1.707l-2.444-2.444A20.047,20.047,0,0,1,31,12.025V14a1,1,0,0,0,1.707.707l2.444-2.444A20.046,20.046,0,0,1,51.975,31H50a1,1,0,0,0-.707,1.707l2.45,2.45A19.9,19.9,0,0,1,41.056,49.827ZM32,6a1,1,0,0,0,1-1V4.414L36.586,8,33,11.586V11a1,1,0,0,0-1-1A22.069,22.069,0,0,0,10.545,27.131L8.707,25.293a1,1,0,0,0-1.414,0l-.556.556A25.994,25.994,0,0,1,32,6ZM6,32a1,1,0,0,0-1-1H4.414L8,27.414,11.586,31H11a1,1,0,0,0-1,1A22.111,22.111,0,0,0,22.04,51.606,2.858,2.858,0,0,0,22,52a2.981,2.981,0,0,0,.78,2,2.989,2.989,0,0,0-.6,1h-2.32A25.925,25.925,0,0,1,6,32ZM32,61a3,3,0,0,1-2.816-2h5.632A3,3,0,0,1,32,61Zm7-4H25a1,1,0,0,1,0-2H39a1,1,0,0,1,0,2Zm5.136-2h-2.32a2.989,2.989,0,0,0-.6-1A2.981,2.981,0,0,0,42,52a2.944,2.944,0,0,0-.039-.39A21.9,21.9,0,0,0,53.45,36.865l1.843,1.842a1,1,0,0,0,1.414,0l.561-.561A25.973,25.973,0,0,1,44.136,55Z"/><path d="M32,24v2a8.009,8.009,0,0,1,8,8h2A10.011,10.011,0,0,0,32,24Z"/></g></svg>
